<?xml version="1.0" encoding="UTF-8" standalone="no"?>
<!-- Created with Inkscape (http://www.inkscape.org/) -->

<svg
   width="26.458332mm"
   height="26.458332mm"
   viewBox="0 0 26.458332 26.458332"
   version="1.1"
   id="svg1"
   inkscape:version="1.4.2 (ebf0e940, 2025-05-08)"
   sodipodi:docname="b.svg"
   xmlns:inkscape="http://www.inkscape.org/namespaces/inkscape"
   xmlns:sodipodi="http://sodipodi.sourceforge.net/DTD/sodipodi-0.dtd"
   xmlns="http://www.w3.org/2000/svg"
   xmlns:svg="http://www.w3.org/2000/svg">
  <sodipodi:namedview
     id="namedview1"
     pagecolor="#ffffff"
     bordercolor="#000000"
     borderopacity="0.25"
     inkscape:showpageshadow="2"
     inkscape:pageopacity="0.0"
     inkscape:pagecheckerboard="0"
     inkscape:deskcolor="#d1d1d1"
     inkscape:document-units="mm"
     inkscape:zoom="0.52649411"
     inkscape:cx="-147.20013"
     inkscape:cy="44.634877"
     inkscape:window-width="976"
     inkscape:window-height="684"
     inkscape:window-x="0"
     inkscape:window-y="0"
     inkscape:window-maximized="0"
     inkscape:current-layer="layer1" />
  <defs
     id="defs1" />
  <g
     inkscape:label="Layer 1"
     inkscape:groupmode="layer"
     id="layer1"
     transform="translate(-143.93333,-136.525)">
    <g
       id="g25"
       transform="matrix(0.26458333,0,0,0.26458333,227.27708,136.52553)">
	<circle
   fill="#bab1ab"
   cx="-265"
   cy="49.998001"
   r="50"
   id="circle25" />

</g>
    <path
       fill="#0d0f0f"
       d="m 167.92972,149.38931 c 0,1.45997 -0.53129,2.45559 -1.5928,2.98635 -0.31009,0.15504 -1.28322,0.36486 -2.9202,0.6305 -1.06151,0.17727 -1.59226,0.58658 -1.59226,1.2274 v 2.68764 c 0,0.11165 0.0331,0.45376 0.0992,1.02897 l 0.0998,1.06203 c 0,0.33205 -0.0775,0.87472 -0.23257,1.62613 -0.42015,0.0884 -0.90699,0.18759 -1.45997,0.29951 -0.17727,-0.66437 -0.26564,-1.1176 -0.26564,-1.36155 0,-0.11006 0.0278,-0.27649 0.0828,-0.49794 0.0548,-0.22066 0.0836,-0.38656 0.0836,-0.49821 0,-0.15346 -0.13758,-0.58552 -0.41248,-1.29302 h -0.51462 c -0.0683,0.1106 -0.091,0.25426 -0.0688,0.43101 0.0884,0.37623 0.12145,0.69664 0.0998,0.96229 -0.37624,0.26564 -0.89614,0.61938 -1.55972,1.06177 -0.15504,-0.0439 -0.20981,-0.0661 -0.16642,-0.0661 v -2.35585 c -0.0434,-0.11006 -0.15452,-0.15372 -0.33179,-0.13282 h -0.39793 l -0.39794,3.11865 c -0.31062,0.0222 -0.6858,0.0222 -1.12818,0 -0.15557,-0.72973 -0.43153,-1.81319 -0.82947,-3.25147 h -0.26564 c -0.24394,0.77497 -0.37624,1.19565 -0.39846,1.2618 0,0.0884 0.0275,0.25955 0.0831,0.51382 0.0548,0.25453 0.0828,0.42571 0.0828,0.51408 0,0.0662 -0.0222,0.23204 -0.0661,0.49769 l -0.0998,0.79639 c -0.0445,0.0439 -0.0998,0.0661 -0.1659,0.0661 -0.66357,0 -1.10648,-0.1659 -1.32715,-0.49715 -0.22119,-0.33232 -0.31009,-0.79693 -0.26564,-1.39462 l 0.26564,-3.98119 c 0,-0.0667 0.0217,-0.15504 0.0661,-0.26564 0.0434,-0.1106 0.0662,-0.18812 0.0662,-0.23204 0,-0.17727 -0.18812,-0.53128 -0.56383,-1.06204 -0.0656,-0.0217 -0.40984,-0.0998 -1.02844,-0.23257 -0.37676,-0.0884 -1.11786,-0.24288 -2.22303,-0.4646 -1.52691,-0.28681 -2.2897,-1.51474 -2.2897,-3.683 0,-3.22977 1.32768,-5.91741 3.98224,-8.06318 0.10954,0.59743 0.29819,1.39329 0.5633,2.38892 0.1995,0.045 0.63103,0.1442 1.29408,0.29872 0.13335,0.0445 0.80777,0.28786 2.02459,0.73025 -0.62018,-0.37624 -1.4269,-0.98399 -2.42252,-1.8251 -0.37624,-0.44238 -0.56436,-1.18295 -0.56436,-2.2225 0,-0.24342 0.42069,-0.53128 1.26153,-0.8636 0.75142,-0.30956 1.31631,-0.48577 1.69228,-0.53075 1.19433,-0.15399 2.11243,-0.23257 2.75431,-0.23257 2.76463,0 4.99824,0.70855 6.70137,2.12434 -0.55245,0.64188 -1.50389,1.32662 -2.853,2.0566 0.53128,0.0222 1.30545,-0.18706 2.32277,-0.6305 1.01706,-0.44185 1.4486,-0.66357 1.29408,-0.66357 0.17674,0 0.53128,0.35454 1.06204,1.06203 0.39793,0.53076 0.71834,1.00727 0.96229,1.42637 0.70749,1.26154 1.18295,2.62149 1.42689,4.08146 0,0.50959 0.0109,0.87445 0.0331,1.09512 v 0.26564 z m -12.70821,0.59743 c 0,-0.95092 -0.41486,-1.85262 -1.24433,-2.70484 -0.83,-0.85169 -1.72032,-1.27688 -2.67123,-1.27688 -0.84085,0 -1.58142,0.35666 -2.22303,1.06865 -0.64188,0.71253 -0.96229,1.50337 -0.96229,2.37146 0,0.75645 0.36486,1.24699 1.09511,1.46924 0.46461,0.13387 1.11627,0.21193 1.95738,0.23362 h 1.8251 c 1.48114,0.0222 2.22329,-0.36486 2.22329,-1.16125 z m 3.61633,4.11506 v -1.02896 c -0.15452,-0.28734 -0.30956,-0.58606 -0.46408,-0.89615 -0.13282,-0.44291 -0.37624,-1.06204 -0.73025,-1.8587 l -0.36539,3.8825 c 0,0.31009 -0.0661,0.46461 -0.19897,0.46461 -0.0884,0 -0.15451,-0.0217 -0.19896,-0.0656 -0.15505,-2.345 -0.23257,-3.36259 -0.23257,-3.05355 v -1.16073 c -0.0444,-0.0672 -0.0992,-0.10028 -0.16537,-0.10028 -0.75247,0.77523 -1.12818,2.02459 -1.12818,3.74968 0,0.95144 0.0873,1.53749 0.26511,1.75895 0.17727,-0.0439 0.37624,-0.12145 0.59743,-0.23204 0.0884,-0.0445 0.34264,-0.0667 0.76385,-0.0667 0.4191,0 0.92869,0.13282 1.52559,0.39794 0.22119,0 0.33179,-0.5969 0.33179,-1.79097 z m 7.49935,-4.62359 c 0,-0.89086 -0.33179,-1.68672 -0.99536,-2.38787 -0.66411,-0.70061 -1.42743,-1.05172 -2.28918,-1.05172 -0.92922,0 -1.79784,0.42519 -2.60509,1.27688 -0.80777,0.8517 -1.21126,1.74202 -1.21126,2.67124 0,0.7747 0.37571,1.16125 1.12819,1.16125 h 3.81582 c 1.43748,-0.0217 2.15688,-0.57838 2.15688,-1.66978 z"
       id="path26"
       style="stroke-width:0.264583" />
  </g>
</svg>
