<?xml version="1.0" encoding="UTF-8" standalone="no"?>
<!-- Created with Inkscape (http://www.inkscape.org/) -->

<svg
   width="26.458332mm"
   height="26.458332mm"
   viewBox="0 0 26.458332 26.458332"
   version="1.1"
   id="svg1"
   inkscape:version="1.4.2 (ebf0e940, 2025-05-08)"
   sodipodi:docname="g.svg"
   xmlns:inkscape="http://www.inkscape.org/namespaces/inkscape"
   xmlns:sodipodi="http://sodipodi.sourceforge.net/DTD/sodipodi-0.dtd"
   xmlns="http://www.w3.org/2000/svg"
   xmlns:svg="http://www.w3.org/2000/svg">
  <sodipodi:namedview
     id="namedview1"
     pagecolor="#ffffff"
     bordercolor="#000000"
     borderopacity="0.25"
     inkscape:showpageshadow="2"
     inkscape:pageopacity="0.0"
     inkscape:pagecheckerboard="0"
     inkscape:deskcolor="#d1d1d1"
     inkscape:document-units="mm"
     inkscape:zoom="0.52649411"
     inkscape:cx="25.641313"
     inkscape:cy="99.716216"
     inkscape:window-width="976"
     inkscape:window-height="684"
     inkscape:window-x="0"
     inkscape:window-y="0"
     inkscape:window-maximized="0"
     inkscape:current-layer="layer1" />
  <defs
     id="defs1" />
  <g
     inkscape:label="Layer 1"
     inkscape:groupmode="layer"
     id="layer1"
     transform="translate(-97.76501,-121.91285)">
    <g
       id="g23"
       transform="matrix(0.26458333,0,0,0.26458333,125.54626,121.91285)">
	<path
   fill="#a3c095"
   d="M -5,49.998 C -5,77.613 -27.385,100 -55.002,100 -82.615,100 -105,77.613 -105,49.998 -105,22.385 -82.615,0 -55.002,0 -27.385,0 -5,22.385 -5,49.998 Z"
   id="path23" />

</g>
    <path
       fill="#0d0f0f"
       d="m 122.57287,136.78905 c 0,0.44132 -0.17065,0.83714 -0.51223,1.19009 -0.34105,0.35243 -0.7329,0.52864 -1.17369,0.52864 -0.70432,0 -1.22317,-0.33073 -1.55284,-0.99166 l -1.55337,-0.0661 c -0.33126,0 -0.98134,0.14367 -1.95024,0.42994 -1.03558,0.28628 -1.6309,0.51779 -1.78488,0.69401 -0.24236,0.26405 -0.44027,0.88159 -0.59479,1.85102 -0.13282,0.79322 -0.19791,1.37716 -0.19791,1.75181 0,0.59425 0.0931,1.03002 0.28073,1.30545 0.18759,0.27543 0.57309,0.50694 1.15649,0.694 0.58341,0.18706 0.94218,0.2921 1.07447,0.31406 0.0879,0 0.23099,-0.0108 0.42995,-0.0331 h 0.39635 c 0.28575,0 0.5834,0.045 0.89244,0.13229 0.44079,0.1323 0.62838,0.30851 0.56224,0.52917 -0.30904,-0.0439 -0.84852,0.0222 -1.61952,0.19844 l 0.92499,0.46249 c 0,0.26458 -0.37465,0.39635 -1.12342,0.39635 -0.19897,0 -0.46858,-0.0439 -0.81042,-0.13177 -0.34158,-0.0889 -0.56753,-0.13229 -0.67707,-0.13229 h -0.42995 c -0.0217,0.22013 -0.0884,0.55033 -0.19844,0.99113 -0.37518,-0.0222 -0.81491,-0.24289 -1.32186,-0.66093 -0.50747,-0.41804 -0.82629,-0.62786 -0.95805,-0.62786 -0.13282,0 -0.32041,0.20982 -0.56224,0.62786 -0.24289,0.41804 -0.3638,0.70485 -0.3638,0.85937 -0.28628,-0.15452 -0.52811,-0.44133 -0.72761,-0.85937 -0.0878,-0.28681 -0.18706,-0.57309 -0.2966,-0.85937 -0.22013,0.0222 -0.62838,0.48525 -1.22264,1.38854 h -0.16589 c -0.0439,-0.0667 -0.21034,-0.52917 -0.49556,-1.38854 -0.68316,-0.22013 -1.32186,-0.3302 -1.91717,-0.3302 -0.28628,0 -0.72708,0.0662 -1.32186,0.19791 l -0.92499,-0.0656 c 0.13177,-0.1323 0.51726,-0.3855 1.1565,-0.76015 0.74877,-0.4408 1.32186,-0.66146 1.71873,-0.66146 0.0651,0 0.15293,0.0114 0.26458,0.0331 0.10954,0.0228 0.19844,0.0331 0.26459,0.0331 0.15293,0 0.40163,-0.0826 0.74321,-0.24818 0.34158,-0.16484 0.53949,-0.3138 0.59426,-0.44556 0.0558,-0.13335 0.0836,-0.4744 0.0836,-1.02526 0,-1.25571 -0.33072,-2.19208 -0.99218,-2.80908 -0.57362,-0.55087 -1.5203,-0.94721 -2.84269,-1.1901 -0.35242,1.25571 -1.34408,1.88463 -2.97391,1.88463 -0.52917,0 -1.05781,-0.31935 -1.58644,-0.95859 -0.528114,-0.63923 -0.792704,-1.22317 -0.792704,-1.7518 0,-0.81545 0.34052,-1.48723 1.023684,-2.01692 -0.550344,-0.57203 -0.825774,-1.15597 -0.825774,-1.75075 0,-0.55139 0.17013,-1.03558 0.512244,-1.45521 0.34157,-0.41751 0.78766,-0.6604 1.33852,-0.72707 -0.0439,-0.70432 0.18706,-1.18957 0.694,-1.45415 -0.24235,-0.24183 -0.36327,-0.67125 -0.36327,-1.28826 0,-0.72708 0.24236,-1.33324 0.72708,-1.81795 0.48418,-0.48472 1.09034,-0.72761 1.81742,-0.72761 0.79375,0 1.44383,0.27649 1.95024,0.82683 0.63924,-2.18123 2.01639,-3.27211 4.13094,-3.27211 1.10173,0 2.07116,0.4408 2.90883,1.32239 0.30851,0.3302 0.46249,0.50694 0.46249,0.52811 -0.26458,0 -0.13176,-0.0497 0.39688,-0.14843 0.52811,-0.0992 0.9136,-0.14896 1.15702,-0.14896 0.85884,0 1.61899,0.31935 2.28045,0.95858 0.57255,0.57309 0.96943,1.29964 1.19009,2.18123 0.15346,0.0222 0.39635,0.0878 0.72708,0.19791 0.48418,0.24341 0.72707,0.66093 0.72707,1.25624 0,0.11059 -0.0889,0.31988 -0.26458,0.62786 1.4097,0.79322 2.11508,1.89494 2.11508,3.30517 0,0.39635 -0.15399,0.94827 -0.46249,1.65285 0.57308,0.32994 0.85883,0.81518 0.85883,1.45389 z m -13.61731,1.45415 v -0.42942 c 0,-0.50641 -0.24765,-0.96943 -0.74321,-1.38801 -0.4961,-0.41857 -0.99748,-0.62785 -1.50389,-0.62785 -0.61754,0 -1.18957,0.14314 -1.71874,0.42889 1.16761,-0.0656 2.49,0.60669 3.96584,2.01639 z m -0.59425,-4.09813 c -0.33073,-0.37518 -0.61701,-0.76068 -0.8599,-1.15703 -0.92551,0.24236 -1.388,0.51779 -1.388,0.82577 0.26458,-0.0212 0.65008,0.0278 1.15649,0.14922 0.50641,0.12145 0.87075,0.18204 1.09141,0.18204 z m 2.01639,-1.02473 v -1.45415 c -0.52917,-0.0879 -0.84958,-0.1323 -0.95859,-0.1323 v 0.49557 z m 4.2963,-0.92552 c -0.26458,-0.11006 -0.76068,-0.33073 -1.48722,-0.66093 v 2.84216 c 1.03505,-0.59531 1.53061,-1.32239 1.48722,-2.18123 z m 1.8169,3.90023 -0.72655,-0.89244 c -0.44027,0.30876 -0.88688,0.62283 -1.33906,0.94218 -0.45217,0.31935 -0.84296,0.67812 -1.17263,1.07421 0.99139,-0.5297 2.07142,-0.90329 3.23824,-1.12395 z"
       id="path24"
       style="stroke-width:0.264583" />
  </g>
</svg>
