<?xml version="1.0" encoding="UTF-8" standalone="no"?>
<!-- Created with Inkscape (http://www.inkscape.org/) -->

<svg
   width="26.458332mm"
   height="26.458332mm"
   viewBox="0 0 26.458332 26.458332"
   version="1.1"
   id="svg1"
   inkscape:version="1.4.2 (ebf0e940, 2025-05-08)"
   sodipodi:docname="r.svg"
   xmlns:inkscape="http://www.inkscape.org/namespaces/inkscape"
   xmlns:sodipodi="http://sodipodi.sourceforge.net/DTD/sodipodi-0.dtd"
   xmlns="http://www.w3.org/2000/svg"
   xmlns:svg="http://www.w3.org/2000/svg">
  <sodipodi:namedview
     id="namedview1"
     pagecolor="#ffffff"
     bordercolor="#000000"
     borderopacity="0.25"
     inkscape:showpageshadow="2"
     inkscape:pageopacity="0.0"
     inkscape:pagecheckerboard="0"
     inkscape:deskcolor="#d1d1d1"
     inkscape:document-units="mm"
     inkscape:zoom="0.52649411"
     inkscape:cx="-80.722651"
     inkscape:cy="44.634877"
     inkscape:window-width="976"
     inkscape:window-height="684"
     inkscape:window-x="0"
     inkscape:window-y="0"
     inkscape:window-maximized="0"
     inkscape:current-layer="layer1" />
  <defs
     id="defs1" />
  <g
     inkscape:label="Layer 1"
     inkscape:groupmode="layer"
     id="layer1"
     transform="translate(-125.94167,-136.525)">
    <g
       id="g24"
       transform="matrix(0.26458333,0,0,0.26458333,181.50417,136.525)">
	<circle
   fill="#e49977"
   cx="-160"
   cy="50"
   r="50"
   id="circle24" />

</g>
    <path
       fill="#0d0f0f"
       d="m 150.27408,154.15075 c -0.98849,2.35796 -2.95275,3.53668 -5.8936,3.53668 -0.53895,0 -1.12342,0.0672 -1.7518,0.20162 -0.94298,0.20214 -1.41447,0.48365 -1.41447,0.84296 0,0.11218 0.0781,0.24077 0.23575,0.38708 0.15663,0.14632 0.2921,0.21855 0.40402,0.21855 -0.56171,0 -0.17992,0.0169 1.14458,0.0505 1.32504,0.0336 2.15583,0.0505 2.49291,0.0505 -1.95342,1.14459 -5.22076,1.6719 -9.80096,1.58247 -1.50495,-0.0222 -2.79559,-0.68474 -3.87324,-1.98702 -1.05621,-1.23534 -1.58326,-2.6162 -1.58326,-4.14284 0,-1.61608 0.54424,-2.99191 1.63406,-4.12618 1.08823,-1.13295 2.44184,-1.70048 4.05818,-1.70048 0.35904,0 0.83609,0.0786 1.4314,0.23575 0.59478,0.15716 0.99377,0.23574 1.19539,0.23574 0.83052,0 1.86398,-0.34211 3.09906,-1.02738 1.23455,-0.68474 1.81901,-1.02737 1.75181,-1.02737 -0.2249,2.35796 -1.01071,3.94123 -2.3585,4.74874 -0.9652,0.56171 -1.44806,1.11151 -1.44806,1.64994 0,0.33681 0.20214,0.60669 0.60616,0.80883 0.31432,0.15743 0.66198,0.23601 1.04378,0.23601 0.58393,0 1.15649,-0.35878 1.7182,-1.07712 0.56065,-0.71914 0.8083,-1.36975 0.7411,-1.95421 -0.0672,-0.67337 -0.0222,-1.48246 0.13494,-2.42464 0.0444,-0.26988 0.20717,-0.60061 0.48789,-0.99325 0.28072,-0.39317 0.5334,-0.63447 0.75803,-0.72443 0,0.20161 -0.0728,0.53896 -0.21908,1.01018 -0.14631,0.47122 -0.21854,0.82021 -0.21854,1.04431 0,0.49398 0.13441,0.87551 0.40402,1.14459 0.40349,-0.15664 0.76279,-0.66199 1.07791,-1.5158 0.26882,-0.65061 0.42571,-1.27953 0.47122,-1.88569 -0.9435,-0.045 -1.84732,-0.47122 -2.71145,-1.28005 -0.86466,-0.80883 -1.29646,-1.68407 -1.29646,-2.62678 0,-0.15717 0.0217,-0.31433 0.0677,-0.47176 0.13441,0.20215 0.33628,0.51674 0.60563,0.94298 0.38179,0.56118 0.67389,0.8419 0.87656,0.8419 0.26882,0 0.40349,-0.28072 0.40349,-0.8419 0,-0.71834 -0.19129,-1.36948 -0.57255,-1.95342 -0.42678,-0.69612 -0.97711,-1.04431 -1.65048,-1.04431 -0.31459,0 -0.78607,0.16854 -1.41393,0.50535 -0.62944,0.33629 -1.202,0.50536 -1.71767,0.50536 -0.1577,0 -0.85434,-0.20267 -2.08889,-0.60669 2.17752,-0.35851 3.26708,-0.68421 3.26708,-0.97658 0,-0.76332 -1.49358,-1.28005 -4.4794,-1.54913 -0.29236,-0.0222 -0.83106,-0.0672 -1.61687,-0.13494 0.0894,-0.11218 0.72972,-0.23574 1.92035,-0.37042 1.01018,-0.11165 1.71767,-0.16854 2.12143,-0.16854 5.34379,0 8.73442,2.59424 10.17137,7.78087 0.24712,-0.20452 0.37095,-0.54663 0.37095,-1.0242 0,-0.61489 -0.17992,-1.38906 -0.53896,-2.32225 -0.13546,-0.3638 -0.34872,-0.91043 -0.64029,-1.63856 1.84071,2.34606 2.76199,4.56935 2.76199,6.66723 0,1.10543 -0.25903,2.10952 -0.77523,3.01122 -0.33602,0.60934 -0.96573,1.38748 -1.88569,2.33522 -0.92075,0.9472 -1.54966,1.68063 -1.88674,2.19948 1.23507,-0.33629 2.0439,-0.59479 2.4257,-0.7747 0.85275,-0.381 1.62719,-0.95409 2.32383,-1.71768 0,0.29263 -0.12356,0.73078 -0.37041,1.31419 z m -14.68491,-13.23578 c 0,0.40349 -0.22489,0.66198 -0.67336,0.77417 l -0.87604,0.13493 c -0.31459,0.15717 -0.7747,0.7747 -1.38086,1.85209 -0.0677,-0.33629 -0.16854,-0.80777 -0.30321,-1.41446 -0.20214,0.0228 -0.53843,0.20214 -1.01018,0.53895 -0.20214,0.15716 -0.52811,0.39264 -0.97711,0.70697 0.13547,-0.8083 0.58394,-1.62666 1.34779,-2.45877 0.8083,-0.91996 1.59412,-1.38034 2.35744,-1.38034 1.01018,0 1.51553,0.41593 1.51553,1.24646 z m 5.86052,3.098 c 0,0.3818 -0.20769,0.70221 -0.62309,0.96018 -0.4154,0.25849 -0.82524,0.38761 -1.22925,0.38761 -0.53896,0 -1.02209,-0.30321 -1.44807,-0.90964 -0.51726,-0.7411 -1.04431,-1.2237 -1.58327,-1.44912 0.11219,-0.11165 0.24713,-0.16801 0.40455,-0.16801 0.20214,0 0.54372,0.15716 1.02685,0.47122 0.4826,0.31459 0.7911,0.47175 0.92657,0.47175 0.11218,0 0.29713,-0.15716 0.55563,-0.47175 0.25796,-0.31432 0.54424,-0.47122 0.85883,-0.47122 0.74084,2.6e-4 1.11125,0.39343 1.11125,1.17898 z"
       id="path25"
       style="stroke-width:0.264583" />
  </g>
</svg>
