<?xml version="1.0" encoding="UTF-8" standalone="no"?>
<!-- Created with Inkscape (http://www.inkscape.org/) -->

<svg
   width="26.458332mm"
   height="26.458332mm"
   viewBox="0 0 26.458332 26.458332"
   version="1.1"
   id="svg1"
   inkscape:version="1.4.2 (ebf0e940, 2025-05-08)"
   sodipodi:docname="w.svg"
   xmlns:inkscape="http://www.inkscape.org/namespaces/inkscape"
   xmlns:sodipodi="http://sodipodi.sourceforge.net/DTD/sodipodi-0.dtd"
   xmlns="http://www.w3.org/2000/svg"
   xmlns:svg="http://www.w3.org/2000/svg">
  <sodipodi:namedview
     id="namedview1"
     pagecolor="#ffffff"
     bordercolor="#000000"
     borderopacity="0.25"
     inkscape:showpageshadow="2"
     inkscape:pageopacity="0.0"
     inkscape:pagecheckerboard="true"
     inkscape:deskcolor="#d1d1d1"
     inkscape:document-units="mm"
     inkscape:zoom="0.52649411"
     inkscape:cx="105.41429"
     inkscape:cy="-33.238739"
     inkscape:window-width="976"
     inkscape:window-height="656"
     inkscape:window-x="418"
     inkscape:window-y="0"
     inkscape:window-maximized="0"
     inkscape:current-layer="layer1" />
  <defs
     id="defs1" />
  <g
     inkscape:label="Layer 1"
     inkscape:groupmode="layer"
     id="layer1"
     transform="translate(-76.729172,-116.94583)">
    <g
       id="g27"
       transform="matrix(0.26458333,0,0,0.26458333,215.63542,116.94583)">
	<circle
   fill="#f8f6d8"
   cx="-475"
   cy="50"
   r="50"
   id="circle27" />

</g>
    <path
       fill="#0d0f0f"
       d="m 102.57658,132.04401 c -1.73593,-0.97869 -2.849031,-1.4687 -3.338246,-1.4687 -0.3556,0 -0.633677,0.27305 -0.834496,0.81809 -0.200554,0.54584 -0.600604,0.81757 -1.201473,0.81757 -0.245004,0 -0.745596,-0.0889 -1.502304,-0.2667 -0.422804,0.64558 -0.634471,1.05727 -0.634471,1.23507 0,0.245 0.182298,0.5334 0.5461,0.8681 0.363802,0.3339 0.670719,0.50033 0.921279,0.50033 0.15928,0 0.37465,-0.0331 0.647965,-0.10028 0.272785,-0.0661 0.455348,-0.0998 0.5461,-0.0998 0.273315,0 0.40931,0.50086 0.40931,1.5023 0,0.957 -0.22225,2.4257 -0.667543,4.40638 -0.578909,-2.27013 -1.190625,-3.40546 -1.835679,-3.40546 -0.08943,0 -0.272786,0.0667 -0.550863,0.20109 -0.278606,0.13282 -0.484187,0.19949 -0.617537,0.19949 -0.645055,0 -1.223698,-0.58922 -1.735932,-1.76953 -1.023673,0.1561 -1.535906,0.67918 -1.535906,1.57004 0,0.44555 0.205581,0.80089 0.618067,1.06759 0.410898,0.2667 0.617537,0.45694 0.617537,0.56753 0,0.6014 -0.879475,1.52506 -2.637631,2.77098 -0.934244,0.66755 -1.580356,1.1348 -1.935692,1.4015 0.310621,-0.40005 0.6223,-0.9226 0.934773,-1.56845 0.3556,-0.73422 0.533929,-1.30175 0.533929,-1.70286 0,-0.22225 -0.255852,-0.53446 -0.76782,-0.93477 -0.512234,-0.40005 -0.767292,-0.82312 -0.767292,-1.26815 0,-0.37782 0.132821,-0.84481 0.40005,-1.40203 -0.289454,-0.3339 -0.633677,-0.50138 -1.034521,-0.50138 -0.890323,0 -1.334823,0.28998 -1.334823,0.86783 0,-0.40058 0,-0.10027 0,0.90117 0.0217,0.73449 -0.534458,1.10173 -1.669785,1.10173 -0.867569,0 -2.325952,-0.20082 -4.372769,-0.60087 2.314575,-0.57891 3.471598,-1.24645 3.471598,-2.0029 0,0.0889 -0.04445,-0.1778 -0.13335,-0.80115 -0.08943,-0.68898 0.400579,-1.3126 1.468702,-1.86876 -0.200554,-1.02314 -0.73369,-1.53617 -1.602581,-1.53617 -0.13335,0 -0.378883,0.23389 -0.734219,0.70035 -0.356129,0.46858 -0.689769,0.70168 -1.000919,0.70168 -0.534458,0 -1.224756,-0.57838 -2.06957,-1.73646 -0.401109,-0.57785 -1.013355,-1.4351 -1.836473,-2.57043 0.511704,0.26776 1.023673,0.53446 1.535906,0.80195 0.667544,0.31115 1.201473,0.46726 1.602581,0.46726 0.311679,0 0.617538,-0.27279 0.91784,-0.81809 0.300302,-0.54531 0.695589,-0.8181 1.185068,-0.8181 0.06721,0 0.512234,0.13335 1.335352,0.40111 0.422275,-0.64532 0.634471,-1.12395 0.634471,-1.43563 0,-0.26723 -0.16166,-0.57308 -0.484187,-0.91836 -0.323056,-0.34476 -0.617538,-0.51727 -0.884767,-0.51727 -0.111654,0 -0.283633,0.0331 -0.517789,0.10028 -0.233098,0.0667 -0.405607,0.10028 -0.516732,0.10028 -0.401108,0 -0.601398,-0.50086 -0.601398,-1.50231 0,-0.26722 0.256382,-1.79122 0.76835,-4.57332 -0.02275,0.33338 0.121973,0.957 0.433653,1.86902 0.378354,1.1131 0.823118,1.66925 1.335881,1.66925 0.08837,0 0.2667,-0.0667 0.533929,-0.20055 0.2667,-0.13335 0.478102,-0.1995 0.633942,-0.1995 0.511704,0 0.934243,0.28946 1.268677,0.86704 l 0.500856,0.90118 c 0.467254,0 0.856721,-0.16643 1.167871,-0.50033 0.311679,-0.33391 0.467783,-0.73475 0.467783,-1.202 0,-0.48948 -0.205581,-0.86255 -0.617537,-1.1184 -0.412486,-0.25585 -0.618067,-0.45058 -0.618067,-0.58393 0,-0.46779 0.734748,-1.2573 2.20345,-2.37014 1.179248,-0.88979 1.947069,-1.41288 2.303727,-1.56898 -0.956998,1.2909 -1.435629,2.23599 -1.435629,2.83739 0,0.31168 0.188648,0.64585 0.567531,1.00145 0.467254,0.4228 0.734219,0.72337 0.800894,0.90117 0.22225,0.51276 0.200025,1.21338 -0.06668,2.10317 0.600868,0.42334 1.056746,0.63395 1.368954,0.63395 0.644525,0 0.967846,-0.33444 0.967846,-1.00145 0,-0.0667 -0.02778,-0.27808 -0.08308,-0.63394 -0.05636,-0.3556 -0.07223,-0.55616 -0.05054,-0.60087 0.0889,-0.31168 0.701146,-0.46779 1.835944,-0.46779 0.711994,0 2.191544,0.20056 4.439975,0.6014 -0.490011,0.13335 -1.224229,0.33338 -2.202923,0.60061 -0.890323,0.26722 -1.335881,0.56753 -1.335881,0.90117 0,0.1561 0.0553,0.4228 0.166952,0.80089 0.111125,0.37888 0.167481,0.65617 0.167481,0.83503 0,0.31115 -0.200554,0.6006 -0.600869,0.86703 l -1.135327,0.80196 c 0.267229,0.49001 0.445029,0.77919 0.534459,0.86757 0.22225,0.2667 0.522552,0.40057 0.90117,0.40057 0.267229,0 0.511704,-0.23362 0.734219,-0.70061 0.22225,-0.46779 0.578908,-0.70115 1.068123,-0.70115 0.600604,0 1.280054,0.55669 2.036496,1.66979 0.42148,0.62441 1.07818,1.56977 1.9685,2.83818 z m -7.410183,-1.93569 c 0,-1.42372 -0.523611,-2.65933 -1.569509,-3.70575 -1.045898,-1.0459 -2.280973,-1.56898 -3.705225,-1.56898 -1.447006,0 -2.693458,0.51779 -3.738827,1.55284 -1.045898,1.03452 -1.580356,2.27541 -1.602052,3.72163 -0.02275,1.42425 0.505883,2.65377 1.585383,3.68776 1.0795,1.03505 2.331244,1.55284 3.755232,1.55284 1.513152,0 2.776008,-0.49557 3.788304,-1.48564 1.013354,-0.98954 1.508389,-2.24102 1.486694,-3.7547 z m -0.500857,0 c 0,1.35758 -0.456406,2.48206 -1.368954,3.37079 -0.913077,0.89086 -2.047875,1.33588 -3.404923,1.33588 -1.313127,0 -2.437077,-0.45587 -3.371321,-1.36895 -0.934243,-0.91149 -1.402027,-2.02459 -1.402027,-3.33772 0,-1.29037 0.472282,-2.39818 1.417902,-3.32131 0.94668,-0.9234 2.064544,-1.38589 3.355446,-1.38589 1.290373,0 2.408767,0.46725 3.354917,1.40256 0.945621,0.93477 1.41896,2.03596 1.41896,3.30464 z"
       id="path28"
       style="stroke-width:0.264583" />
  </g>
</svg>
